<svg width="24" height="24" viewBox="0 0 24 24" fill="none" xmlns="http://www.w3.org/2000/svg">
<mask id="mask0_2812_250034" style="mask-type:alpha" maskUnits="userSpaceOnUse" x="0" y="0" width="24" height="24">
<rect width="24" height="24" fill="#D9D9D9"/>
</mask>
<g mask="url(#mask0_2812_250034)">
<path d="M5.76471 21C5.27941 21 4.86397 20.8237 4.51838 20.4713C4.17279 20.1187 4 19.695 4 19.2V6.6H5.76471V19.2H15.4706V21H5.76471ZM9.29412 17.4C8.80882 17.4 8.39338 17.2238 8.04779 16.8713C7.70221 16.5188 7.52941 16.095 7.52941 15.6V4.8C7.52941 4.305 7.70221 3.88125 8.04779 3.52875C8.39338 3.17625 8.80882 3 9.29412 3H17.2353C17.7206 3 18.136 3.17625 18.4816 3.52875C18.8272 3.88125 19 4.305 19 4.8V15.6C19 16.095 18.8272 16.5188 18.4816 16.8713C18.136 17.2238 17.7206 17.4 17.2353 17.4H9.29412ZM9.29412 15.6H17.2353V4.8H9.29412V15.6Z" fill="#4D5156"/>
</g>
</svg>
