<svg width="24" height="24" viewBox="0 0 24 24" fill="none" xmlns="http://www.w3.org/2000/svg">
<mask id="mask0_2812_250027" style="mask-type:alpha" maskUnits="userSpaceOnUse" x="0" y="0" width="24" height="24">
<rect width="24" height="24" fill="#D9D9D9"/>
</mask>
<g mask="url(#mask0_2812_250027)">
<path d="M17.4 21H7.5V9.3L12.675 4.125C13.2963 3.50368 14.3037 3.50368 14.925 4.125C15.03 4.23 15.1163 4.3725 15.1838 4.5525C15.2513 4.7325 15.285 4.905 15.285 5.07V5.385L14.295 9.3H20.1C20.58 9.3 21 9.48 21.36 9.84C21.72 10.2 21.9 10.62 21.9 11.1V12.9C21.9 13.005 21.885 13.1175 21.855 13.2375C21.825 13.3575 21.795 13.47 21.765 13.575L19.065 19.92C18.93 20.22 18.705 20.475 18.39 20.685C18.075 20.895 17.745 21 17.4 21ZM9.3 19.2H17.4L20.1 12.9V11.1H13.2751C12.6263 11.1 12.1493 10.4917 12.304 9.86162L13.215 6.15L9.3 10.065V19.2ZM7.5 9.3V11.1H5.8C5.24772 11.1 4.8 11.5477 4.8 12.1V18.2C4.8 18.7523 5.24772 19.2 5.8 19.2H7.5V21H4C3.44772 21 3 20.5523 3 20V10.3C3 9.74771 3.44772 9.3 4 9.3H7.5Z" fill="#4D5156"/>
</g>
</svg>
