<svg fill="none" height="24" viewBox="0 0 24 24" width="24" xmlns="http://www.w3.org/2000/svg"><path d="m20.0438 11.7564-10.50003 11.25c-.06806.077-.15178.1385-.24555.1806-.09377.042-.19544.0635-.2982.0631-.12056-.0012-.23923-.03-.34687-.0843-.14281-.0771-.25718-.1978-.32635-.3446s-.08951-.3119-.05803-.4711l1.36875-6.8718-5.4-2.025c-.11537-.0448-.21824-.1168-.29985-.2098s-.13955-.2044-.1689-.3246c-.02852-.1207-.0263-.2465.00645-.3661.03276-.1196.09502-.229.18105-.3183l10.50003-11.249989c.112-.11486.258-.190741.4164-.216491.1584-.025751.3209-.000013.4636.07343s.2581.19072.3291.33459c.0711.14388.0942.30676.0659.46472l-1.3688 6.88125 5.4 2.02499c.116.0421.2195.1125.3014.2048.0818.0922.1393.2035.1673.3236.0279.1201.0254.2454-.0073.3643-.0328.1189-.0947.2278-.1801.3167z" fill="#0ca4a5"/></svg>